# xmcd
#
# Track frame offsets:
#	150
#	24876
#	42670
#	59340
#	94310
#	110181
#	133200
#	159253
#	180689
#	199469
#
# Disc length: 2963 seconds
#
# Revision: 0
# Processed by: cddbd v1.5.1PL2 Copyright (c) Steve Scherf et al.
# Submitted via: dBpowerAMP V4.0
#
DISCID=920b910a
DTITLE=CHUCK STRONG - Let's Get Back Together
DYEAR=1900
DGENRE=Blues
TTITLE0=ROCK THAT MAN IN THE BOAT
TTITLE1=COTTON CANDY
TTITLE2=KISS AND MAKE UP
TTITLE3=I'LL STILL BE LOVIN' YOU
TTITLE4=SHE'S MY WOMAN TOO
TTITLE5=HOME WITH YOU
TTITLE6=LET'S GET BACK TOGETHER
TTITLE7=EX LOVE NEXT LOVE
TTITLE8=A GIRL LIKE YOU
TTITLE9=WOMAN ENOUGH FOR ME
EXTD=
EXTT0=
EXTT1=
EXTT2=
EXTT3=
EXTT4=
EXTT5=
EXTT6=
EXTT7=
EXTT8=
EXTT9=
PLAYORDER=
